<?xml version="1.0" encoding="utf-8"?>
<!-- Generator: Adobe Illustrator 19.1.0, SVG Export Plug-In . SVG Version: 6.00 Build 0)  -->
<svg version="1.1" xmlns="http://www.w3.org/2000/svg" xmlns:xlink="http://www.w3.org/1999/xlink" x="0px" y="0px" width="40px"
	 height="60px" viewBox="0 0 40 60" style="enable-background:new 0 0 40 60;" xml:space="preserve">
<style type="text/css">
	.st0{display:none;}
	.st1{display:inline;fill:#29ABE2;}
	.st2{fill:#FFFFFF;}
	.st3{fill:#00677F;}
	.st4{fill:#003340;}
	.st5{fill:#333333;}
	.st6{fill:#707070;}
</style>
<g id="bg_-_x3E__remove_before_export" class="st0">
	<rect x="0" class="st1" width="40" height="60"/>
</g>
<g id="Ebene_1">
	<polygon class="st2" points="16.6,6.2 10.4,0 9,1.4 13.8,6.2 9,11 10.4,12.4 16.6,6.2 16.6,6.2 	"/>
	<polygon class="st3" points="7.6,6.2 1.4,0 0,1.4 4.8,6.2 0,11 1.4,12.4 7.6,6.2 7.6,6.2 	"/>
	<polygon class="st4" points="25.6,6.2 19.4,0 18,1.4 22.8,6.2 18,11 19.4,12.4 25.6,6.2 25.6,6.2 	"/>
	<g>
		<g>
			<path class="st5" d="M10,17.5c4.7,0,8.5,3.8,8.5,8.5s-3.8,8.5-8.5,8.5S1.5,30.7,1.5,26S5.3,17.5,10,17.5 M10,16
				C4.5,16,0,20.5,0,26s4.5,10,10,10s10-4.5,10-10S15.5,16,10,16L10,16z"/>
		</g>
		<rect x="9" y="23" class="st5" width="2" height="9"/>
		<rect x="9" y="20" class="st5" width="2" height="2"/>
	</g>
	<g>
		<g>
			<path class="st5" d="M29.5,17c3,0,5.5,2.5,5.5,5.5S32.5,28,29.5,28S24,25.5,24,22.5S26.5,17,29.5,17 M29.5,16
				c-3.6,0-6.5,2.9-6.5,6.5s2.9,6.5,6.5,6.5s6.5-2.9,6.5-6.5S33.1,16,29.5,16L29.5,16z"/>
		</g>
		<rect x="28.9" y="21" class="st5" width="1.3" height="5.4"/>
		<rect x="28.9" y="18.6" class="st5" width="1.3" height="1.3"/>
	</g>
	<g>
		<g>
			<path class="st6" d="M29.5,39c3,0,5.5,2.5,5.5,5.5S32.5,50,29.5,50S24,47.5,24,44.5S26.5,39,29.5,39 M29.5,38
				c-3.6,0-6.5,2.9-6.5,6.5s2.9,6.5,6.5,6.5s6.5-2.9,6.5-6.5S33.1,38,29.5,38L29.5,38z"/>
		</g>
		<rect x="28.9" y="43" class="st6" width="1.3" height="5.4"/>
		<rect x="28.9" y="40.6" class="st6" width="1.3" height="1.3"/>
	</g>
	<g>
		<g>
			<path class="st6" d="M10,39.5c4.7,0,8.5,3.8,8.5,8.5s-3.8,8.5-8.5,8.5S1.5,52.7,1.5,48S5.3,39.5,10,39.5 M10,38
				C4.5,38,0,42.5,0,48s4.5,10,10,10s10-4.5,10-10S15.5,38,10,38L10,38z"/>
		</g>
		<rect x="9" y="45" class="st6" width="2" height="9"/>
		<rect x="9" y="42" class="st6" width="2" height="2"/>
	</g>
</g>
</svg>
